# xmcd
#
# Track frame offsets:
# 150
# 21045
# 39936
# 62342
# 79814
# 100345
# 121237
# 136854
# 157557
# 163192
# 166743
# 183198
# 201153
# 222967
# 235174
# 250097
# 271065
# 291522
# 308151
#
# Disc length: 4274 seconds
#
# Revision: 0
# Processed by: cddbd v1.5.2PL0 Copyright (c) Steve Scherf et al.
# Submitted via: Audion 3.0.2 (http://www.panic.com/audion/)
#
DISCID=f210b013
DTITLE=Soul Coughing - Live Rarities
DYEAR=1900
DGENRE=
TTITLE0=City of Motors
TTITLE1=Surpa Genius
TTITLE2=Casiotone Nation
TTITLE3=Laff on Fat Boy
TTITLE4=Murder of Laweyers
TTITLE5=Un,Zoom, Zip
TTITLE6=Disseminated
TTITLE7=True Dreams of Witchita
TTITLE8=Baby Elephany
TTITLE9=Free Jazz
TTITLE10=Woolly Imbibe
TTITLE11=Blue Eyed Devil
TTITLE12=Screenwriter's Blues
TTITLE13=Amy Fischer
TTITLE14=Sugar Free Jazz
TTITLE15=Moonsammy
TTITLE16=Mr.  Bitterness
TTITLE17=212
TTITLE18=White Girl
EXTD=
EXTT0=
EXTT1=
EXTT2=
EXTT3=
EXTT4=
EXTT5=
EXTT6=
EXTT7=
EXTT8=
EXTT9=
EXTT10=
EXTT11=
EXTT12=
EXTT13=
EXTT14=
EXTT15=
EXTT16=
EXTT17=
EXTT18=
PLAYORDER=
